<svg width="74" height="32" viewBox="0 0 74 32" fill="none" xmlns="http://www.w3.org/2000/svg">
<rect width="74" height="32" rx="10" fill="#04CE00"/>
<path d="M24.9091 10.3636V22H21.75V10.3636H24.9091ZM26.4062 10.3636H30.3381L33.0426 16.9545H33.179L35.8835 10.3636H39.8153V22H36.7244V15.2727H36.6335L34.0426 21.9091H32.179L29.5881 15.2273H29.4972V22H26.4062V10.3636ZM52.1761 14.7273H48.9716C48.9489 14.4621 48.8883 14.2216 48.7898 14.0057C48.6951 13.7898 48.5625 13.6042 48.392 13.4489C48.2254 13.2898 48.0227 13.1686 47.7841 13.0852C47.5455 12.9981 47.2746 12.9545 46.9716 12.9545C46.4413 12.9545 45.9924 13.0833 45.625 13.3409C45.2614 13.5985 44.9848 13.9678 44.7955 14.4489C44.6098 14.9299 44.517 15.5076 44.517 16.1818C44.517 16.8939 44.6117 17.4905 44.8011 17.9716C44.9943 18.4489 45.2727 18.8087 45.6364 19.0511C46 19.2898 46.4375 19.4091 46.9489 19.4091C47.2405 19.4091 47.5019 19.3731 47.733 19.3011C47.964 19.2254 48.1648 19.1174 48.3352 18.9773C48.5057 18.8371 48.6439 18.6686 48.75 18.4716C48.8598 18.2708 48.9337 18.0455 48.9716 17.7955L52.1761 17.8182C52.1383 18.3106 52 18.8125 51.7614 19.3239C51.5227 19.8314 51.1837 20.3011 50.7443 20.733C50.3087 21.161 49.7689 21.5057 49.125 21.767C48.4811 22.0284 47.733 22.1591 46.8807 22.1591C45.8125 22.1591 44.8542 21.9299 44.0057 21.4716C43.161 21.0133 42.4924 20.339 42 19.4489C41.5114 18.5587 41.267 17.4697 41.267 16.1818C41.267 14.8864 41.517 13.7955 42.017 12.9091C42.517 12.0189 43.1913 11.3466 44.0398 10.892C44.8883 10.4337 45.8352 10.2045 46.8807 10.2045C47.6155 10.2045 48.2917 10.3049 48.9091 10.5057C49.5265 10.7064 50.0682 11 50.5341 11.3864C51 11.7689 51.375 12.2405 51.6591 12.8011C51.9432 13.3617 52.1155 14.0038 52.1761 14.7273Z" fill="white"/>
</svg>
